<svg height="4078" width="720" xmlns="http://www.w3.org/2000/svg">
<rect height="4078" fill="#555" width="720"></rect>
<text fill="#7f7" font-family="Courier New" font-size="12" xml:space="preserve">
<tspan x="10" y="26">36 megabytes installed</tspan>
<tspan x="10" y="42"></tspan>
<tspan x="10" y="58">node_modules</tspan>
<tspan x="10" y="74">├─┬ generator-angulpify@0.1.2 </tspan>
<tspan x="10" y="90">│ ├─┬ chalk@0.4.0 </tspan>
<tspan x="10" y="106">│ │ ├── ansi-styles@1.0.0 </tspan>
<tspan x="10" y="122">│ │ ├── has-color@0.1.7 </tspan>
<tspan x="10" y="138">│ │ └── strip-ansi@0.1.1 </tspan>
<tspan x="10" y="154">│ ├─┬ yeoman-generator@0.17.7 </tspan>
<tspan x="10" y="170">│ │ ├── async@0.9.2 </tspan>
<tspan x="10" y="186">│ │ ├─┬ chalk@0.5.1 </tspan>
<tspan x="10" y="202">│ │ │ ├── ansi-styles@1.1.0 </tspan>
<tspan x="10" y="218">│ │ │ ├── escape-string-regexp@1.0.5 </tspan>
<tspan x="10" y="234">│ │ │ ├─┬ has-ansi@0.1.0 </tspan>
<tspan x="10" y="250">│ │ │ │ └── ansi-regex@0.2.1 </tspan>
<tspan x="10" y="266">│ │ │ ├── strip-ansi@0.3.0 </tspan>
<tspan x="10" y="282">│ │ │ └── supports-color@0.2.0 </tspan>
<tspan x="10" y="298">│ │ ├─┬ cheerio@0.17.0 </tspan>
<tspan x="10" y="314">│ │ │ ├─┬ CSSselect@0.4.1 </tspan>
<tspan x="10" y="330">│ │ │ │ ├── CSSwhat@0.4.7 </tspan>
<tspan x="10" y="346">│ │ │ │ └── domutils@1.4.3 </tspan>
<tspan x="10" y="362">│ │ │ ├─┬ dom-serializer@0.0.1 </tspan>
<tspan x="10" y="378">│ │ │ │ └── domelementtype@1.1.3 </tspan>
<tspan x="10" y="394">│ │ │ ├── entities@1.1.1 </tspan>
<tspan x="10" y="410">│ │ │ └─┬ htmlparser2@3.7.3 </tspan>
<tspan x="10" y="426">│ │ │   ├── domelementtype@1.3.0 </tspan>
<tspan x="10" y="442">│ │ │   ├── domhandler@2.2.1 </tspan>
<tspan x="10" y="458">│ │ │   ├── domutils@1.5.1 </tspan>
<tspan x="10" y="474">│ │ │   ├── entities@1.0.0 </tspan>
<tspan x="10" y="490">│ │ │   └─┬ readable-stream@1.1.14 </tspan>
<tspan x="10" y="506">│ │ │     ├── core-util-is@1.0.2 </tspan>
<tspan x="10" y="522">│ │ │     ├── isarray@0.0.1 </tspan>
<tspan x="10" y="538">│ │ │     └── string_decoder@0.10.31 </tspan>
<tspan x="10" y="554">│ │ ├─┬ class-extend@0.1.2 </tspan>
<tspan x="10" y="570">│ │ │ └── object-assign@2.1.1 </tspan>
<tspan x="10" y="586">│ │ ├─┬ cross-spawn@0.2.9 </tspan>
<tspan x="10" y="602">│ │ │ └── lru-cache@2.7.3 </tspan>
<tspan x="10" y="618">│ │ ├── dargs@2.1.0 </tspan>
<tspan x="10" y="634">│ │ ├─┬ debug@1.0.4 </tspan>
<tspan x="10" y="650">│ │ │ └── ms@0.6.2 </tspan>
<tspan x="10" y="666">│ │ ├── diff@1.4.0 </tspan>
<tspan x="10" y="682">│ │ ├─┬ download@1.0.7 </tspan>
<tspan x="10" y="698">│ │ │ ├─┬ archive-type@1.0.4 </tspan>
<tspan x="10" y="714">│ │ │ │ ├── get-stdin@3.0.2 </tspan>
<tspan x="10" y="730">│ │ │ │ ├── is-7zip@1.0.0 </tspan>
<tspan x="10" y="746">│ │ │ │ ├── is-bzip2@1.0.0 </tspan>
<tspan x="10" y="762">│ │ │ │ ├── is-gzip@1.0.0 </tspan>
<tspan x="10" y="778">│ │ │ │ ├── is-rar@1.0.0 </tspan>
<tspan x="10" y="794">│ │ │ │ ├── is-tar@1.0.0 </tspan>
<tspan x="10" y="810">│ │ │ │ ├── is-zip@1.0.0 </tspan>
<tspan x="10" y="826">│ │ │ │ ├─┬ meow@2.1.0 </tspan>
<tspan x="10" y="842">│ │ │ │ │ ├─┬ camelcase-keys@1.0.0 </tspan>
<tspan x="10" y="858">│ │ │ │ │ │ ├── camelcase@1.2.1 </tspan>
<tspan x="10" y="874">│ │ │ │ │ │ └── map-obj@1.0.1 </tspan>
<tspan x="10" y="890">│ │ │ │ │ ├─┬ indent-string@1.2.2 </tspan>
<tspan x="10" y="906">│ │ │ │ │ │ ├── get-stdin@4.0.1 </tspan>
<tspan x="10" y="922">│ │ │ │ │ │ └─┬ repeating@1.1.3 </tspan>
<tspan x="10" y="938">│ │ │ │ │ │   └─┬ is-finite@1.0.2 </tspan>
<tspan x="10" y="954">│ │ │ │ │ │     └── number-is-nan@1.0.1 </tspan>
<tspan x="10" y="970">│ │ │ │ │ └── minimist@1.2.0 </tspan>
<tspan x="10" y="986">│ │ │ │ └── read-chunk@1.0.1 </tspan>
<tspan x="10" y="1002">│ │ │ ├─┬ decompress@1.0.7 </tspan>
<tspan x="10" y="1018">│ │ │ │ ├─┬ decompress-tar@1.0.3 </tspan>
<tspan x="10" y="1034">│ │ │ │ │ ├── simple-bufferstream@0.0.4 </tspan>
<tspan x="10" y="1050">│ │ │ │ │ ├─┬ strip-dirs@0.1.1 </tspan>
<tspan x="10" y="1066">│ │ │ │ │ │ ├─┬ chalk@0.5.1 </tspan>
<tspan x="10" y="1082">│ │ │ │ │ │ │ ├── ansi-styles@1.1.0 </tspan>
<tspan x="10" y="1098">│ │ │ │ │ │ │ └── strip-ansi@0.3.0 </tspan>
<tspan x="10" y="1114">│ │ │ │ │ │ ├─┬ is-absolute@0.1.7 </tspan>
<tspan x="10" y="1130">│ │ │ │ │ │ │ └── is-relative@0.1.3 </tspan>
<tspan x="10" y="1146">│ │ │ │ │ │ └── is-integer@1.0.6 </tspan>
<tspan x="10" y="1162">│ │ │ │ │ └─┬ tar@1.0.3 </tspan>
<tspan x="10" y="1178">│ │ │ │ │   ├── block-stream@0.0.9 </tspan>
<tspan x="10" y="1194">│ │ │ │ │   └── fstream@1.0.11 </tspan>
<tspan x="10" y="1210">│ │ │ │ ├─┬ decompress-tarbz2@1.0.2 </tspan>
<tspan x="10" y="1226">│ │ │ │ │ └─┬ seek-bzip@1.0.5 </tspan>
<tspan x="10" y="1242">│ │ │ │ │   └─┬ commander@2.8.1 </tspan>
<tspan x="10" y="1258">│ │ │ │ │     └── graceful-readlink@1.0.1 </tspan>
<tspan x="10" y="1274">│ │ │ │ ├── decompress-targz@1.0.3 </tspan>
<tspan x="10" y="1290">│ │ │ │ └─┬ decompress-unzip@1.0.0 </tspan>
<tspan x="10" y="1306">│ │ │ │   ├── adm-zip@0.4.7 </tspan>
<tspan x="10" y="1322">│ │ │ │   ├── is-zip@0.1.0 </tspan>
<tspan x="10" y="1338">│ │ │ │   └─┬ temp-write@1.1.2 </tspan>
<tspan x="10" y="1354">│ │ │ │     ├── os-tmpdir@1.0.2 </tspan>
<tspan x="10" y="1370">│ │ │ │     └── uuid@2.0.3 </tspan>
<tspan x="10" y="1386">│ │ │ ├─┬ each-async@1.1.1 </tspan>
<tspan x="10" y="1402">│ │ │ │ ├── onetime@1.1.0 </tspan>
<tspan x="10" y="1418">│ │ │ │ └── set-immediate-shim@1.0.1 </tspan>
<tspan x="10" y="1434">│ │ │ ├─┬ fs-extra@0.11.1 </tspan>
<tspan x="10" y="1450">│ │ │ │ ├─┬ jsonfile@2.4.0 </tspan>
<tspan x="10" y="1466">│ │ │ │ │ └── graceful-fs@4.1.11 </tspan>
<tspan x="10" y="1482">│ │ │ │ └── ncp@0.6.0 </tspan>
<tspan x="10" y="1498">│ │ │ ├── object-assign@1.0.0 </tspan>
<tspan x="10" y="1514">│ │ │ └── ware@0.3.0 </tspan>
<tspan x="10" y="1530">│ │ ├─┬ file-utils@0.2.2 </tspan>
<tspan x="10" y="1546">│ │ │ ├─┬ findup-sync@0.2.1 </tspan>
<tspan x="10" y="1562">│ │ │ │ └── glob@4.3.5 </tspan>
<tspan x="10" y="1578">│ │ │ └─┬ minimatch@2.0.10 </tspan>
<tspan x="10" y="1594">│ │ │   └─┬ brace-expansion@1.1.7 </tspan>
<tspan x="10" y="1610">│ │ │     ├── balanced-match@0.4.2 </tspan>
<tspan x="10" y="1626">│ │ │     └── concat-map@0.0.1 </tspan>
<tspan x="10" y="1642">│ │ ├─┬ findup-sync@0.1.3 </tspan>
<tspan x="10" y="1658">│ │ │ └─┬ glob@3.2.11 </tspan>
<tspan x="10" y="1674">│ │ │   └─┬ minimatch@0.3.0 </tspan>
<tspan x="10" y="1690">│ │ │     └── sigmund@1.0.1 </tspan>
<tspan x="10" y="1706">│ │ ├─┬ github-username@1.1.1 </tspan>
<tspan x="10" y="1722">│ │ │ ├── get-stdin@1.0.0 </tspan>
<tspan x="10" y="1738">│ │ │ └─┬ got@2.9.2 </tspan>
<tspan x="10" y="1754">│ │ │   ├─┬ duplexify@3.5.0 </tspan>
<tspan x="10" y="1770">│ │ │   │ ├─┬ end-of-stream@1.0.0 </tspan>
<tspan x="10" y="1786">│ │ │   │ │ └── once@1.3.3 </tspan>
<tspan x="10" y="1802">│ │ │   │ ├─┬ readable-stream@2.2.9 </tspan>
<tspan x="10" y="1818">│ │ │   │ │ ├── buffer-shims@1.0.0 </tspan>
<tspan x="10" y="1834">│ │ │   │ │ ├── isarray@1.0.0 </tspan>
<tspan x="10" y="1850">│ │ │   │ │ ├── process-nextick-args@1.0.7 </tspan>
<tspan x="10" y="1866">│ │ │   │ │ ├── string_decoder@1.0.0 </tspan>
<tspan x="10" y="1882">│ │ │   │ │ └── util-deprecate@1.0.2 </tspan>
<tspan x="10" y="1898">│ │ │   │ └── stream-shift@1.0.0 </tspan>
<tspan x="10" y="1914">│ │ │   ├── infinity-agent@2.0.3 </tspan>
<tspan x="10" y="1930">│ │ │   ├── is-stream@1.1.0 </tspan>
<tspan x="10" y="1946">│ │ │   ├── lowercase-keys@1.0.0 </tspan>
<tspan x="10" y="1962">│ │ │   ├── nested-error-stacks@1.0.2 </tspan>
<tspan x="10" y="1978">│ │ │   ├── prepend-http@1.0.4 </tspan>
<tspan x="10" y="1994">│ │ │   ├─┬ read-all-stream@2.2.0 </tspan>
<tspan x="10" y="2010">│ │ │   │ └─┬ readable-stream@2.2.9 </tspan>
<tspan x="10" y="2026">│ │ │   │   ├── isarray@1.0.0 </tspan>
<tspan x="10" y="2042">│ │ │   │   └── string_decoder@1.0.0 </tspan>
<tspan x="10" y="2058">│ │ │   ├── statuses@1.3.1 </tspan>
<tspan x="10" y="2074">│ │ │   └── timed-out@2.0.0 </tspan>
<tspan x="10" y="2090">│ │ ├─┬ glob@4.5.3 </tspan>
<tspan x="10" y="2106">│ │ │ ├─┬ inflight@1.0.6 </tspan>
<tspan x="10" y="2122">│ │ │ │ └── wrappy@1.0.2 </tspan>
<tspan x="10" y="2138">│ │ │ ├── inherits@2.0.3 </tspan>
<tspan x="10" y="2154">│ │ │ ├── minimatch@2.0.10 </tspan>
<tspan x="10" y="2170">│ │ │ └── once@1.4.0 </tspan>
<tspan x="10" y="2186">│ │ ├─┬ grouped-queue@0.3.3 </tspan>
<tspan x="10" y="2202">│ │ │ └── lodash@4.17.4 </tspan>
<tspan x="10" y="2218">│ │ ├─┬ gruntfile-editor@0.2.0 </tspan>
<tspan x="10" y="2234">│ │ │ └─┬ ast-query@0.2.5 </tspan>
<tspan x="10" y="2250">│ │ │   ├─┬ escodegen@1.3.3 </tspan>
<tspan x="10" y="2266">│ │ │   │ ├── estraverse@1.5.1 </tspan>
<tspan x="10" y="2282">│ │ │   │ ├── esutils@1.0.0 </tspan>
<tspan x="10" y="2298">│ │ │   │ └─┬ source-map@0.1.43 </tspan>
<tspan x="10" y="2314">│ │ │   │   └── amdefine@1.0.1 </tspan>
<tspan x="10" y="2330">│ │ │   ├── esprima@1.1.1 </tspan>
<tspan x="10" y="2346">│ │ │   └── traverse@0.6.6 </tspan>
<tspan x="10" y="2362">│ │ ├── iconv-lite@0.4.15 </tspan>
<tspan x="10" y="2378">│ │ ├─┬ inquirer@0.7.3 </tspan>
<tspan x="10" y="2394">│ │ │ ├── ansi-regex@1.1.1 </tspan>
<tspan x="10" y="2410">│ │ │ ├─┬ chalk@0.5.1 </tspan>
<tspan x="10" y="2426">│ │ │ │ ├── ansi-styles@1.1.0 </tspan>
<tspan x="10" y="2442">│ │ │ │ └─┬ strip-ansi@0.3.0 </tspan>
<tspan x="10" y="2458">│ │ │ │   └── ansi-regex@0.2.1 </tspan>
<tspan x="10" y="2474">│ │ │ ├─┬ cli-color@0.3.3 </tspan>
<tspan x="10" y="2490">│ │ │ │ ├── d@0.1.1 </tspan>
<tspan x="10" y="2506">│ │ │ │ ├─┬ es5-ext@0.10.15 </tspan>
<tspan x="10" y="2522">│ │ │ │ │ ├─┬ es6-iterator@2.0.1 </tspan>
<tspan x="10" y="2538">│ │ │ │ │ │ └── d@1.0.0 </tspan>
<tspan x="10" y="2554">│ │ │ │ │ └─┬ es6-symbol@3.1.1 </tspan>
<tspan x="10" y="2570">│ │ │ │ │   └── d@1.0.0 </tspan>
<tspan x="10" y="2586">│ │ │ │ ├─┬ memoizee@0.3.10 </tspan>
<tspan x="10" y="2602">│ │ │ │ │ ├─┬ es6-weak-map@0.1.4 </tspan>
<tspan x="10" y="2618">│ │ │ │ │ │ ├── es6-iterator@0.1.3 </tspan>
<tspan x="10" y="2634">│ │ │ │ │ │ └── es6-symbol@2.0.1 </tspan>
<tspan x="10" y="2650">│ │ │ │ │ ├─┬ event-emitter@0.3.5 </tspan>
<tspan x="10" y="2666">│ │ │ │ │ │ └── d@1.0.0 </tspan>
<tspan x="10" y="2682">│ │ │ │ │ ├── lru-queue@0.1.0 </tspan>
<tspan x="10" y="2698">│ │ │ │ │ └── next-tick@0.2.2 </tspan>
<tspan x="10" y="2714">│ │ │ │ └─┬ timers-ext@0.1.2 </tspan>
<tspan x="10" y="2730">│ │ │ │   └── next-tick@1.0.0 </tspan>
<tspan x="10" y="2746">│ │ │ ├─┬ figures@1.7.0 </tspan>
<tspan x="10" y="2762">│ │ │ │ └── object-assign@4.1.1 </tspan>
<tspan x="10" y="2778">│ │ │ ├── mute-stream@0.0.4 </tspan>
<tspan x="10" y="2794">│ │ │ ├─┬ readline2@0.1.1 </tspan>
<tspan x="10" y="2810">│ │ │ │ └─┬ strip-ansi@2.0.1 </tspan>
<tspan x="10" y="2826">│ │ │ │   └── ansi-regex@1.1.1 </tspan>
<tspan x="10" y="2842">│ │ │ ├── rx@2.5.3 </tspan>
<tspan x="10" y="2858">│ │ │ └── through@2.3.8 </tspan>
<tspan x="10" y="2874">│ │ ├── isbinaryfile@2.0.4 </tspan>
<tspan x="10" y="2890">│ │ ├── lodash@2.4.2 </tspan>
<tspan x="10" y="2906">│ │ ├── mime@1.3.4 </tspan>
<tspan x="10" y="2922">│ │ ├─┬ mkdirp@0.5.1 </tspan>
<tspan x="10" y="2938">│ │ │ └── minimist@0.0.8 </tspan>
<tspan x="10" y="2954">│ │ ├─┬ nopt@3.0.6 </tspan>
<tspan x="10" y="2970">│ │ │ └── abbrev@1.1.0 </tspan>
<tspan x="10" y="2986">│ │ ├─┬ request@2.81.0 </tspan>
<tspan x="10" y="3002">│ │ │ ├── aws-sign2@0.6.0 </tspan>
<tspan x="10" y="3018">│ │ │ ├── aws4@1.6.0 </tspan>
<tspan x="10" y="3034">│ │ │ ├── caseless@0.12.0 </tspan>
<tspan x="10" y="3050">│ │ │ ├─┬ combined-stream@1.0.5 </tspan>
<tspan x="10" y="3066">│ │ │ │ └── delayed-stream@1.0.0 </tspan>
<tspan x="10" y="3082">│ │ │ ├── extend@3.0.0 </tspan>
<tspan x="10" y="3098">│ │ │ ├── forever-agent@0.6.1 </tspan>
<tspan x="10" y="3114">│ │ │ ├─┬ form-data@2.1.4 </tspan>
<tspan x="10" y="3130">│ │ │ │ └── asynckit@0.4.0 </tspan>
<tspan x="10" y="3146">│ │ │ ├─┬ har-validator@4.2.1 </tspan>
<tspan x="10" y="3162">│ │ │ │ ├─┬ ajv@4.11.7 </tspan>
<tspan x="10" y="3178">│ │ │ │ │ ├── co@4.6.0 </tspan>
<tspan x="10" y="3194">│ │ │ │ │ └─┬ json-stable-stringify@1.0.1 </tspan>
<tspan x="10" y="3210">│ │ │ │ │   └── jsonify@0.0.0 </tspan>
<tspan x="10" y="3226">│ │ │ │ └── har-schema@1.0.5 </tspan>
<tspan x="10" y="3242">│ │ │ ├─┬ hawk@3.1.3 </tspan>
<tspan x="10" y="3258">│ │ │ │ ├── boom@2.10.1 </tspan>
<tspan x="10" y="3274">│ │ │ │ ├── cryptiles@2.0.5 </tspan>
<tspan x="10" y="3290">│ │ │ │ ├── hoek@2.16.3 </tspan>
<tspan x="10" y="3306">│ │ │ │ └── sntp@1.0.9 </tspan>
<tspan x="10" y="3322">│ │ │ ├─┬ http-signature@1.1.1 </tspan>
<tspan x="10" y="3338">│ │ │ │ ├── assert-plus@0.2.0 </tspan>
<tspan x="10" y="3354">│ │ │ │ ├─┬ jsprim@1.4.0 </tspan>
<tspan x="10" y="3370">│ │ │ │ │ ├── assert-plus@1.0.0 </tspan>
<tspan x="10" y="3386">│ │ │ │ │ ├── extsprintf@1.0.2 </tspan>
<tspan x="10" y="3402">│ │ │ │ │ ├── json-schema@0.2.3 </tspan>
<tspan x="10" y="3418">│ │ │ │ │ └── verror@1.3.6 </tspan>
<tspan x="10" y="3434">│ │ │ │ └─┬ sshpk@1.13.0 </tspan>
<tspan x="10" y="3450">│ │ │ │   ├── asn1@0.2.3 </tspan>
<tspan x="10" y="3466">│ │ │ │   ├── assert-plus@1.0.0 </tspan>
<tspan x="10" y="3482">│ │ │ │   ├── bcrypt-pbkdf@1.0.1 </tspan>
<tspan x="10" y="3498">│ │ │ │   ├─┬ dashdash@1.14.1 </tspan>
<tspan x="10" y="3514">│ │ │ │   │ └── assert-plus@1.0.0 </tspan>
<tspan x="10" y="3530">│ │ │ │   ├── ecc-jsbn@0.1.1 </tspan>
<tspan x="10" y="3546">│ │ │ │   ├─┬ getpass@0.1.6 </tspan>
<tspan x="10" y="3562">│ │ │ │   │ └── assert-plus@1.0.0 </tspan>
<tspan x="10" y="3578">│ │ │ │   ├── jodid25519@1.0.2 </tspan>
<tspan x="10" y="3594">│ │ │ │   ├── jsbn@0.1.1 </tspan>
<tspan x="10" y="3610">│ │ │ │   └── tweetnacl@0.14.5 </tspan>
<tspan x="10" y="3626">│ │ │ ├── is-typedarray@1.0.0 </tspan>
<tspan x="10" y="3642">│ │ │ ├── isstream@0.1.2 </tspan>
<tspan x="10" y="3658">│ │ │ ├── json-stringify-safe@5.0.1 </tspan>
<tspan x="10" y="3674">│ │ │ ├─┬ mime-types@2.1.15 </tspan>
<tspan x="10" y="3690">│ │ │ │ └── mime-db@1.27.0 </tspan>
<tspan x="10" y="3706">│ │ │ ├── oauth-sign@0.8.2 </tspan>
<tspan x="10" y="3722">│ │ │ ├── performance-now@0.2.0 </tspan>
<tspan x="10" y="3738">│ │ │ ├── qs@6.4.0 </tspan>
<tspan x="10" y="3754">│ │ │ ├── safe-buffer@5.0.1 </tspan>
<tspan x="10" y="3770">│ │ │ ├── stringstream@0.0.5 </tspan>
<tspan x="10" y="3786">│ │ │ ├─┬ tough-cookie@2.3.2 </tspan>
<tspan x="10" y="3802">│ │ │ │ └── punycode@1.4.1 </tspan>
<tspan x="10" y="3818">│ │ │ ├── tunnel-agent@0.6.0 </tspan>
<tspan x="10" y="3834">│ │ │ └── uuid@3.0.1 </tspan>
<tspan x="10" y="3850">│ │ ├─┬ rimraf@2.6.1 </tspan>
<tspan x="10" y="3866">│ │ │ └─┬ glob@7.1.1 </tspan>
<tspan x="10" y="3882">│ │ │   ├── fs.realpath@1.0.0 </tspan>
<tspan x="10" y="3898">│ │ │   ├── minimatch@3.0.3 </tspan>
<tspan x="10" y="3914">│ │ │   └── path-is-absolute@1.0.1 </tspan>
<tspan x="10" y="3930">│ │ ├── run-async@0.1.0 </tspan>
<tspan x="10" y="3946">│ │ ├── shelljs@0.3.0 </tspan>
<tspan x="10" y="3962">│ │ ├── text-table@0.2.0 </tspan>
<tspan x="10" y="3978">│ │ └── underscore.string@2.4.0 </tspan>
<tspan x="10" y="3994">│ └─┬ yosay@0.1.0 </tspan>
<tspan x="10" y="4010">│   ├── minimist@0.0.9 </tspan>
<tspan x="10" y="4026">│   ├── pad-component@0.0.1 </tspan>
<tspan x="10" y="4042">│   └── word-wrap@0.1.3 </tspan>
<tspan x="10" y="4058">└── UNMET PEER DEPENDENCY yo@&gt;=1.0.0</tspan>
</text>
</svg>
